<?xml version="1.0" standalone="no"?>
<!DOCTYPE svg PUBLIC "-//W3C//DTD SVG 20010904//EN"
 "http://www.w3.org/TR/2001/REC-SVG-20010904/DTD/svg10.dtd">
<svg version="1.0" xmlns="http://www.w3.org/2000/svg"
 width="1052.000000pt" height="1026.000000pt" viewBox="0 0 1052.000000 1026.000000"
 preserveAspectRatio="xMidYMid meet">

<g transform="translate(0.000000,1026.000000) scale(0.100000,-0.100000)"
fill="#000000" stroke="none">
<path d="M4582 9949 c-937 -67 -1852 -424 -2577 -1004 l-100 -80 203 -3 203
-2 94 65 c212 148 529 323 778 429 1105 471 2387 467 3487 -11 247 -107 475
-233 717 -395 l133 -88 202 0 203 1 -35 30 c-81 70 -275 213 -410 301 -681
448 -1423 697 -2255 758 -160 11 -476 11 -643 -1z"/>
<path d="M4035 8155 c-840 -87 -1545 -465 -2029 -1089 -334 -430 -568 -976
-680 -1586 -89 -485 -109 -1067 -50 -1470 51 -351 177 -708 337 -953 184 -283
448 -496 730 -591 154 -51 226 -61 437 -60 224 1 295 14 435 83 104 51 180
121 253 230 121 180 151 287 252 886 44 259 99 580 122 714 l43 243 52 -6
c122 -14 253 -85 347 -187 114 -122 216 -300 481 -829 164 -329 242 -464 353
-613 212 -286 454 -446 767 -508 107 -21 455 -19 568 4 112 23 245 66 341 112
170 80 406 263 596 461 275 286 324 382 323 634 0 136 -12 185 -60 248 -50 66
-151 80 -228 32 -18 -11 -103 -98 -189 -194 -335 -372 -518 -497 -758 -513
-114 -8 -192 8 -298 60 -185 91 -328 279 -559 735 -77 153 -172 326 -212 386
-154 234 -315 361 -559 442 l-85 28 65 18 c633 182 1114 553 1363 1053 156
314 210 711 141 1049 -59 292 -215 565 -424 743 -265 227 -606 367 -1040 428
-159 23 -658 29 -835 10z m369 -725 c320 -31 537 -119 705 -289 114 -114 173
-216 217 -377 24 -90 30 -326 10 -448 -92 -558 -567 -961 -1221 -1035 -49 -6
-91 -8 -94 -5 -3 2 40 251 94 552 55 301 102 579 105 617 21 289 -97 415 -388
415 -169 -1 -310 -49 -405 -139 -101 -95 -130 -173 -193 -506 -42 -224 -164
-920 -164 -936 0 -4 -60 -9 -132 -11 -122 -3 -138 -5 -190 -31 -177 -87 -245
-305 -152 -489 55 -108 122 -151 270 -170 47 -7 84 -16 84 -23 0 -30 -193
-1080 -210 -1143 -35 -127 -79 -194 -148 -224 -78 -35 -161 -8 -255 84 -184
181 -309 528 -348 968 -15 171 -6 685 15 871 84 746 325 1331 715 1732 161
166 304 271 510 376 345 175 763 250 1175 211z"/>
<path d="M8730 7749 l0 -232 50 -87 c265 -464 458 -1063 526 -1635 34 -290 34
-729 0 -1020 -67 -569 -262 -1173 -526 -1634 l-50 -89 2 -233 3 -233 91 139
c1018 1561 1019 3558 2 5118 -50 75 -92 137 -94 137 -2 0 -4 -104 -4 -231z"/>
<path d="M1915 1700 c10 -15 208 -168 335 -257 63 -44 180 -119 259 -167 1443
-866 3243 -889 4711 -58 212 119 522 333 670 461 l35 30 -203 1 -203 0 -157
-104 c-492 -326 -996 -537 -1557 -651 -1170 -238 -2369 -2 -3358 662 l-139 93
-199 0 c-130 0 -198 -3 -194 -10z"/>
</g>
</svg>
